<svg width="459" height="557" viewBox="0 0 459 557" fill="none" xmlns="http://www.w3.org/2000/svg">
<path d="M241.51 175.508C241.483 175.381 241.433 175.265 241.4 175.144C241.461 174.637 241.488 174.146 241.477 173.694C241.461 172.663 241.279 171.676 240.953 170.761C240.816 168.589 240.193 166.505 239.112 164.978C235.413 159.763 227.723 161.632 227.116 167.994C227.067 168.517 227.116 168.98 227.227 169.394C225.611 171.759 225.165 174.852 226.664 177.558C227.166 178.462 227.844 179.212 228.627 179.813C228.434 180 228.257 180.204 228.114 180.436C227.943 180.712 227.684 181.197 227.37 181.704C227.249 181.787 227.116 181.869 226.984 181.946C225.738 181.335 224.217 181.279 223.103 181.908C222.965 181.803 222.833 181.704 222.712 181.638C220.341 180.353 217.022 180.519 215.76 177.834C217.701 175.954 218.384 172.861 217.684 170.221C216.863 167.117 213.814 164.669 210.777 165.414C210.253 165.193 209.707 165.05 209.156 164.973C208.252 164.697 207.248 164.747 206.361 165.193C205.446 165.469 204.564 165.943 203.764 166.632C202.992 167.299 202.64 168.324 202.662 169.366C202 169.802 201.488 170.496 201.295 171.511C200.644 174.901 200.33 178.286 200.484 181.737C200.611 184.593 202.899 185.811 204.994 185.37C206.57 188.584 209.106 191.533 212.281 193.22C213.715 193.981 215.314 194.438 216.945 194.598C217.971 195.53 219.079 196.368 220.336 196.974C222.894 198.209 225.832 198.303 228.274 196.721C230.738 195.122 232.155 192.095 233.665 189.681C234.955 187.619 236.306 185.585 237.591 183.512C240.468 182.514 242.265 178.766 241.51 175.519V175.508Z" fill="#FFA1ED"/>
<path d="M358.568 518.098C358.607 517.718 358.623 517.332 358.607 516.935C358.491 514.399 357.504 512.05 355.922 510.275C356.148 509.454 356.258 508.599 356.22 507.717C356.054 504.002 354.031 500.683 350.96 498.985C350.96 498.941 350.96 498.897 350.96 498.853C348.998 495.986 347.228 492.993 345.701 489.867C342.454 486.934 338.827 484.349 334.946 482.403C332.741 481.3 330.431 480.12 328.011 479.619C327.449 478.544 326.385 477.744 324.808 477.728C327.487 468.814 328.705 459.415 327.09 450.241C327.945 447.816 328.116 445.136 327.46 442.43L323.49 426.035C323.457 425.313 323.391 424.579 323.264 423.835C322.3 417.937 321.004 412.115 319.383 406.371C318.942 402.44 318.38 398.526 317.719 394.629C317.586 393.84 317.355 393.096 317.046 392.39C315.987 381.701 315.067 371.001 314.262 360.29C314.306 359.854 314.35 359.424 314.389 358.989C316.302 338.332 315.15 317.522 316.191 296.816C316.71 286.496 317.459 276.187 318.237 265.884C319.372 262.863 320.111 259.665 320.343 256.302C320.618 252.262 319.764 248.397 319.339 244.411C319.301 243.926 319.251 243.309 319.229 243.061C319.135 242.124 319.064 241.186 319.042 240.249C319.042 240.034 318.992 239.511 318.97 238.97C319.086 238.425 319.229 237.89 319.405 237.361C320.271 234.455 319.924 231.269 318.678 228.474C320.431 223.248 319.565 217.118 315.232 213.523C315.116 210.519 311.065 208.479 308.76 210.723C304.3 210.028 299.389 211.258 296.5 214.747L293.699 215.376C293.236 215.48 292.823 215.684 292.454 215.955C285.309 216.638 278.153 217.162 270.987 217.498C263.335 217.851 254.845 216.919 247.453 219.169C247.425 219.18 247.403 219.191 247.376 219.196C244.873 219.246 242.365 219.29 239.862 219.339C236.312 218.623 232.816 218.557 229.228 219.025C228.12 218.909 227.012 218.788 225.904 218.656C217.921 217.465 209.999 215.944 202.105 214.262C194.42 212.619 186.542 211.181 178.957 209.003C175.974 207.459 172.639 206.489 169.039 206.258C168.571 205.684 168.091 205.111 167.584 204.538C165.853 202.57 163.813 200.877 161.669 199.306C161.476 189.521 161.553 179.736 161.9 169.951C161.944 168.683 161.47 167.74 160.743 167.117C162.049 160.386 163.813 153.76 166.051 147.26C166.526 145.876 166.818 144.377 166.945 142.822C167.049 142.69 167.154 142.558 167.248 142.403C170.456 137.414 173.466 132.177 177.242 127.591C177.424 127.37 177.573 127.144 177.7 126.913C179.095 125.496 180.495 124.101 181.868 122.712C185.434 119.101 189.834 116.284 193.428 112.723C193.963 112.425 194.503 112.127 195.06 111.846C195.909 111.422 196.796 111.074 197.689 110.76C197.678 110.848 197.678 110.937 197.673 111.025C201.421 108.428 205.661 104.658 210.38 104.316C211.179 103.792 211.978 103.279 212.8 102.805C213.208 102.684 213.616 102.557 214.023 102.425C214.768 102.182 215.418 101.769 215.958 101.256C216.262 101.135 216.565 101.025 216.874 100.92C218.213 100.854 219.547 100.639 220.876 100.225C221.025 100.176 221.163 100.121 221.3 100.06C221.532 100.054 221.769 100.043 222 100.027C224.52 99.8614 226.995 99.3983 229.421 98.6982C230.782 98.3068 231.278 97.1381 231.141 96.0466C231.587 96.0466 232.039 96.0411 232.486 96.0356C232.844 96.0356 232.839 95.5063 232.486 95.4843C231.984 95.4512 231.482 95.4292 230.981 95.4016C230.578 94.3211 229.531 93.4997 228.098 93.9132C226.201 94.4589 224.299 94.6684 222.397 94.7897C221.758 93.9848 220.76 93.5052 219.509 93.7533C219.068 93.5493 218.527 93.4666 217.888 93.5438C216.973 93.6596 216.058 93.7698 215.143 93.8856C214.068 93.2296 212.761 92.976 211.526 93.3839C209.233 94.1392 206.912 94.7456 204.558 95.2087C190.192 97.0003 175.82 98.7975 161.454 100.589C161.25 101.388 160.643 102.056 159.541 102.254C157.837 102.563 156.184 102.987 154.557 103.5C154.309 103.682 154.034 103.842 153.736 103.963C152.54 104.454 151.63 104.9 150.34 105.076C149.789 105.314 149.238 105.567 148.692 105.826C148.411 106.085 148.141 106.355 147.887 106.637C148.025 107.1 148.256 107.519 148.593 107.844C144.022 109.272 139.723 111.361 136.52 114.867C135.858 114.972 135.197 115.088 134.546 115.242C134.16 115.567 133.78 115.893 133.399 116.223C127.76 121.124 122.164 126.091 116.883 131.372C116.602 132.056 116.332 132.756 116.084 133.478C115.626 134.801 115.196 136.135 114.772 137.48C113.598 137.629 112.479 138.236 112.015 139.322C110.488 142.922 109.072 146.56 107.782 150.231C107.115 150.518 106.508 151.053 106.045 151.874C102.412 158.324 99.5842 165.077 97.5444 172.034C97.0648 173.435 96.6018 174.835 96.1663 176.252C96.0009 176.792 95.9678 177.31 96.045 177.795C93.9115 187.128 93.1342 196.776 93.669 206.517C93.7462 207.895 93.7792 209.251 93.7847 210.602C93.3437 210.784 92.9303 211.048 92.5664 211.407C89.8817 214.042 88.3602 217.785 88.6413 221.556C88.6965 222.3 88.928 223.005 89.3029 223.606C86.3866 232.961 86.1551 242.862 85.8298 252.592C85.4495 263.954 85.0691 275.316 84.6887 286.678C84.6722 287.152 84.7328 287.582 84.843 287.968C83.8563 288.673 83.2719 289.875 83.1176 291.171C82.3954 297.279 81.2763 303.31 79.9312 309.291C78.79 309.589 77.7757 310.399 77.3292 311.849C73.6687 323.619 71.4636 335.758 69.0931 347.831C68.6025 350.323 68.1174 352.814 67.6267 355.306C64.2639 368.625 61.4359 382.076 59.1481 395.626C58.0676 396.078 57.1635 396.949 56.9816 398.107C56.6122 400.472 56.1547 402.81 55.6365 405.136C54.5064 407.479 53.4479 409.849 52.4391 412.253C52.1689 412.903 52.18 413.598 52.3895 414.254C52.1083 414.871 51.8382 415.494 51.557 416.112C51.32 415.968 51.0664 415.842 50.7852 415.737C44.9472 413.543 39.3297 410.831 33.9658 407.639C32.9625 407.043 32.0805 406.569 31.4244 405.676C30.7243 404.728 30.3991 403.653 29.4729 402.832C27.786 401.327 25.6415 400.99 23.7176 401.674C22.819 401.255 21.937 400.814 21.1101 400.285C20.4099 398.543 19.2688 397.032 17.8079 395.919C17.7252 395.759 17.648 395.604 17.5654 395.45C16.5345 393.504 15.3272 391.635 13.6017 390.235C12.8409 389.617 11.9589 389.221 11.0658 389.105C10.5972 387.429 9.48916 386.167 7.59278 385.472C5.49793 384.7 3.0613 386.332 2.50451 388.361C2.16272 389.595 2.4163 390.748 3.05027 391.668C3.05027 391.927 3.06129 392.192 3.08334 392.451C3.12745 393.063 3.21014 393.697 3.33142 394.32C2.69746 397.032 2.28951 399.783 2.10759 402.55C2.069 402.898 2.04695 403.245 2.05246 403.598C1.98631 405.059 1.98079 406.525 2.04694 407.997C2.09656 409.138 2.52656 410.031 3.16053 410.682C3.12745 410.836 3.1109 410.996 3.09436 411.156C1.66105 412.848 1.91465 415.836 3.84962 417.077C4.08116 418.692 4.5718 420.23 5.10653 421.757C4.92461 422.711 4.88602 423.703 5.01833 424.734C5.36012 427.33 5.66332 429.938 5.9996 432.54C6.36895 434.067 6.62805 435.616 6.66664 437.22C6.68317 437.308 6.68869 437.391 6.70523 437.479C7.05253 439.613 7.78572 441.674 8.84968 443.571C9.37891 444.508 10.0846 445.374 10.7736 446.217C11.6667 448.411 13.0284 450.379 14.7704 451.873C18.5852 462.937 26.7662 471.173 37.9791 474.718C38.0894 474.751 38.1996 474.779 38.3044 474.812C38.2768 475.534 38.2603 476.251 38.2492 476.973C38.2217 478.902 38.1335 481.069 38.1996 483.257C39.3187 483.511 40.2945 484.371 40.3386 485.837C40.4488 489.492 42.235 492.645 44.0597 495.716C44.2306 496.003 44.3408 496.284 44.407 496.559C44.6109 496.626 44.8094 496.67 45.0079 496.697C47.6099 501.201 51.7665 504.382 56.4358 506.549C57.6211 507.1 58.8284 507.607 60.0467 508.076C60.5594 508.274 62.0809 508.787 62.5219 508.914C62.5109 509.107 62.781 509.834 62.8086 509.95C63.007 510.749 63.1724 511.56 63.2771 512.376C63.3047 512.58 63.3213 513.026 63.3488 513.517C63.0125 513.836 62.7259 514.206 62.5274 514.592C62.3731 514.895 62.2683 515.198 62.1856 515.501C61.9045 515.92 61.6729 516.4 61.5517 516.857C61.2043 518.164 61.491 519.608 62.2352 520.716C62.6708 521.367 63.2992 521.907 64.0103 522.249C64.512 523.109 65.3169 523.765 66.3036 524.035C67.6708 525.215 69.3357 525.965 71.1659 526.268C71.3588 526.395 71.6069 526.554 71.9212 526.764C73.156 527.596 74.2475 528.087 75.7194 528.633C77.7922 529.405 79.9312 529.691 82.1528 529.851C83.0018 529.912 83.8618 529.934 84.7273 529.939C84.8375 529.967 84.9423 530.005 85.0525 530.027C87.3293 530.496 89.6116 530.898 91.9159 531.229C91.9711 531.235 92.0317 531.24 92.0868 531.251C92.8972 531.758 93.7958 532.128 94.7826 532.293C98.3493 532.883 101.944 533.341 105.554 533.528C106.624 533.583 107.682 533.401 108.691 533.054C110.483 533.429 112.302 533.627 114.121 533.627C115.334 534.118 116.668 534.41 118.09 534.581C122.694 535.127 127.253 535.171 131.806 534.851C133.091 535.502 134.601 535.849 136.332 535.783C141.145 535.59 145.957 535.402 150.765 535.209C152.413 535.695 154.094 535.81 155.737 535.579C175.109 537.459 194.608 539.113 214.018 537.249C217.535 539.339 222.453 539.173 225.766 536.61C228.461 535.827 230.826 533.726 232.067 531.169C232.249 531.158 232.431 531.141 232.618 531.13C233.18 531.097 233.737 531.08 234.299 531.064C235.292 531.136 236.29 531.136 237.26 531.042C237.949 530.976 238.632 530.849 239.3 530.672C241.389 530.513 243.478 530.353 245.568 530.198C247.017 530.165 248.467 530.116 249.912 530.061C250.005 530.088 250.105 530.11 250.204 530.127C256.317 531.058 262.42 531.461 268.6 531.174C270.204 531.097 271.285 530.237 271.852 529.112C272.778 529.14 273.727 529.046 274.669 528.804L278.672 527.778C279.069 528.115 279.537 528.352 280.072 528.429C285.485 529.261 290.822 528.87 295.91 526.736C296.781 526.372 297.531 525.816 298.038 525.121C298.948 524.901 299.846 524.537 300.69 523.997C301.445 523.511 302.195 523.032 302.95 522.547C303.512 522.679 304.096 522.751 304.697 522.762C306.357 524.173 308.457 525.022 310.811 524.879C312.366 524.785 314.008 524.614 315.574 524.752C315.37 524.757 316.434 524.983 316.82 525.099C317.581 525.32 318.325 525.59 319.075 525.843C323.22 527.238 327.2 527.712 331.506 526.736C331.506 526.736 331.511 526.736 331.517 526.736C331.997 526.808 332.487 526.858 332.994 526.858C333.876 526.858 334.747 526.72 335.591 526.472C336.203 527.337 337.206 527.933 338.601 527.916C341.644 527.877 344.621 527.492 347.509 526.786C347.895 526.836 348.292 526.863 348.7 526.863C351.401 526.863 354.037 525.623 355.916 523.682C356.335 523.473 356.749 523.258 357.162 523.032C359.257 521.885 359.445 519.746 358.59 518.103L358.568 518.098ZM319.124 237.482C319.069 237.934 319.014 238.392 318.959 238.844C318.937 238.21 318.959 237.592 319.124 237.482ZM9.58841 441.476C9.73174 443.025 10.1011 444.569 10.6689 446.019C9.91366 444.695 9.54982 443.185 9.58841 441.476Z" fill="#A1FFB7"/>
<path d="M182.843 125.066C183.113 125.071 183.384 125.099 183.648 125.137C183.34 125 183.009 124.9 182.639 124.95C182.342 124.989 182.072 125.077 181.818 125.193C182.11 125.104 182.441 125.06 182.843 125.071V125.066Z" fill="#FFD4FC"/>
<path d="M309.923 206.456C309.13 204.565 307.305 203.915 305.37 204.223C304.852 204.306 304.328 204.35 303.804 204.361C302.536 203.661 299.846 201.759 299.251 201.572C298.016 201.175 296.709 201.081 295.535 201.39C294.593 200.624 293.545 200.387 292.564 200.519C293.021 196.213 293.016 191.858 292.906 187.536C292.658 178.027 291.847 168.457 290.783 159.008C288.65 140.127 283.302 121.234 267.365 109.388C263.473 106.493 259.041 104.222 254.708 102.072C249.548 99.5086 244.377 97.5957 238.616 97.0389C235.876 96.7743 233.12 97.0389 230.424 97.5792C229.002 97.8603 227.712 98.362 226.378 98.9243C224.018 99.9166 225.325 99.2606 225.683 99.1393C224.873 99.4094 224.068 99.674 223.263 99.9552C220.65 100.881 218.07 101.912 215.534 103.048C213.086 102.938 210.628 103.908 208.483 105.611C209.613 104.718 207.359 106.322 207.348 106.328C206.862 106.631 206.372 106.901 205.876 107.171L201.107 108.958C199.244 109.658 197.551 110.865 196.322 112.397C194.762 113.213 193.307 114.255 191.95 115.562C191.912 115.595 191.884 115.639 191.851 115.678C190.754 115.915 190.109 116.758 189.905 117.712C188.29 118.577 186.669 119.437 185.054 120.303C183.136 120.716 182.05 123.638 184.238 124.884C184.767 125.187 185.308 125.479 185.848 125.771C185.82 125.766 185.793 125.76 185.765 125.755C188.466 126.885 190.903 129.217 192.893 130.964C194.029 131.962 193.885 133.633 193.014 134.686C192.855 135.286 192.617 136.224 192.777 136.02C193.158 136.119 193.053 136.141 192.452 136.075C192.094 136.064 191.741 136.053 191.383 136.047C190.671 136.025 189.96 136.009 189.249 135.987C187.65 135.942 186.046 135.898 184.448 135.854L179.773 135.727C181.217 135.54 182.667 135.375 184.122 135.275C182.579 135.06 180.682 134.647 179.04 134.647C178.692 134.873 178.306 134.978 177.915 134.989C177.59 135.132 177.22 135.22 176.79 135.22C174.977 135.22 174.095 133.787 174.133 132.381C174.122 132.299 174.106 132.216 174.1 132.133C173.626 133.23 173.885 134.763 174.762 135.59C173.295 135.59 172.529 136.67 172.463 137.828C172.358 137.877 172.253 137.927 172.149 137.988C170.809 138.782 170.197 140.204 169.69 141.599C169.106 143.208 168.565 144.84 168.025 146.466C166.917 147.58 165.875 148.754 164.965 150.05C162.198 153.997 161.823 158.346 163.036 162.663C162.7 164.476 162.567 166.34 162.634 168.308C162.733 171.434 162.804 174.543 162.667 177.669C162.589 179.405 162.468 181.142 162.297 182.873C162.237 183.49 162.171 184.102 162.093 184.719C162.093 184.664 161.796 186.726 161.807 186.665C161.498 188.622 161.663 190.69 162.33 192.52C160.693 196.577 161.752 201.991 165.991 204.097C174.569 208.358 183.88 210.001 193.185 211.875C195.137 212.267 197.088 212.647 199.045 213.016C202.722 215.42 206.94 217.002 211.697 217.52C213.555 217.724 215.38 217.068 216.907 215.927C219.09 216.214 221.278 216.473 223.472 216.693C231.074 217.454 238.649 217.542 246.24 217.134C246.692 217.333 247.21 217.46 247.806 217.482C265.899 218.11 284.002 216.39 301.665 212.449C302.095 212.355 302.47 212.206 302.795 212.019C304.394 212.393 305.883 212.256 307.415 211.682C307.415 211.682 307.415 211.682 307.421 211.682C307.724 211.566 308.033 211.44 308.341 211.296C310.072 210.469 310.607 208.11 309.918 206.478L309.923 206.456ZM242.431 179.306C240.59 184.394 236.99 188.826 233.059 192.465C232.331 193.137 229.217 195.905 226.24 197.796C226.041 197.718 225.832 197.663 225.622 197.647C223.147 197.437 220.755 197.548 218.307 197.862C217.353 197.509 216.416 197.04 215.517 196.517C215.435 196.092 215.258 195.684 214.95 195.353C210.804 190.833 206.587 186.368 202.518 181.781C202.221 181.445 201.923 181.097 201.62 180.739C201.609 180.656 201.598 180.574 201.587 180.491C201.647 179.543 201.647 178.589 201.576 177.624C201.504 176.665 201.058 176.004 200.462 175.618C200.716 173.914 201.102 172.227 201.62 170.552C201.747 170.144 201.774 169.769 201.719 169.427C203.125 166.56 205.109 164.383 207.899 162.795C208.037 162.718 208.152 162.63 208.268 162.542C208.549 163.043 209.029 163.429 209.713 163.567C211.372 163.903 212.932 163.975 214.465 163.776C214.487 163.964 214.514 164.151 214.553 164.344C214.74 165.199 215.484 165.822 216.284 166.075C216.967 166.29 217.634 166.428 218.312 166.483C217.899 167.31 217.59 168.137 217.519 168.407C216.929 170.717 216.185 173.253 216.24 175.651C216.3 178.413 217.91 181.048 220.269 182.046C220.959 182.834 222.122 183.258 223.362 182.702C223.919 182.454 224.426 182.145 224.884 181.792C225.992 181.968 227.144 181.505 227.91 180.497C230.92 176.538 227.927 170.507 226.537 166.467C226.576 166.334 226.604 166.196 226.642 166.059C226.967 164.879 227.298 163.699 227.734 162.575C232.249 159.724 237.976 160.584 241.135 165.017C244.129 169.223 244.118 174.603 242.414 179.306H242.431Z" fill="#FFD4FC"/>
<path d="M176.234 129.437C177.149 128.605 178.295 128.131 179.31 127.249C179.74 126.874 180.07 126.488 180.401 126.141C180.258 126.256 180.115 126.372 179.971 126.482C178.753 127.431 177.391 128.357 176.217 129.437C176.223 129.437 176.228 129.437 176.239 129.437H176.234Z" fill="#FFD4FC"/>
<path d="M193.213 130.981C191.124 128.169 188.555 126.245 185.186 125.22C184.249 124.933 183.461 125.137 182.876 125.595C182.358 125.54 181.801 125.628 181.239 125.931L180.644 126.251C179.883 126.659 179.475 127.254 179.332 127.888C178.742 128.555 178.119 129.211 177.457 129.729C176.724 129.763 176.041 129.95 175.291 130.43C173.191 131.78 173.775 135.871 176.68 135.567C181.388 135.071 186.096 134.922 190.826 135.121C192.772 135.204 194.453 132.657 193.207 130.975L193.213 130.981Z" fill="white"/>
<path d="M26.8767 408.361C29.6275 406.476 31.2869 405.605 32.9407 404.502C38.6078 400.726 39.0047 397.887 41.7666 401.426C44.7986 405.312 45.62 413.3 45.62 419.938C45.62 421.592 43.9828 423.747 36.7996 421.591C31.2869 419.938 21.3584 413.091 26.8767 408.361Z" fill="black"/>
<path d="M12.3836 393.851C14.3076 392.534 15.4708 391.922 16.6284 391.15C20.5921 388.504 20.8733 386.519 22.8082 388.995C24.9306 391.718 25.504 397.308 25.504 401.955C25.504 403.113 24.3573 404.623 19.3297 403.113C15.4708 401.955 8.51916 397.165 12.3836 393.851Z" fill="black"/>
<path d="M127.76 121.146C102.936 133.164 81.6454 159.598 72.632 174.62C66.0167 185.645 67.5052 192.862 68.2218 195.017C69.3244 198.325 70.9782 201.081 77.5935 202.735C82.566 203.975 88.4592 204.874 93.5805 204.94C96.3369 189.504 97.4395 147.607 127.76 121.146Z" fill="black"/>
<path d="M93.3434 208.363C70.9782 222.581 55.9835 243.248 49.4784 259.516C45.0682 270.542 43.4144 274.952 45.6195 281.016C47.8246 287.08 56.645 288.734 63.2603 290.388C68.2328 291.628 79.0874 291.975 84.2088 292.042" fill="black"/>
<path d="M60.504 387.964C46.7221 389.066 34.605 385.896 29.6325 384.656C23.0172 383.002 17.5045 379.694 15.2994 375.836C12.9454 371.718 17.8352 362.164 25.7736 349.374C35.6966 333.387 58.6572 308.365 83.4812 296.353C78.5803 327.814 70.4269 362.054 60.504 387.964Z" fill="black"/>
<path d="M339.329 86.1291C342.982 86.1291 345.944 83.1673 345.944 79.5137C345.944 75.8602 342.982 72.8984 339.329 72.8984C335.675 72.8984 332.713 75.8602 332.713 79.5137C332.713 83.1673 335.675 86.1291 339.329 86.1291Z" fill="black"/>
<path d="M345.459 77.0716C343.474 73.5158 341.49 69.9546 339.505 66.3989C338.132 63.9347 336.754 61.4704 335.381 59.0062C335.089 58.4825 333.209 55.4671 333.639 54.8662C334.069 54.2653 334.775 54.381 338.761 55.8971C341.567 56.961 346.881 59.7394 345.029 61.713C343.629 63.2015 340.475 64.6789 338.854 65.4396" fill="black"/>
<path d="M369.599 92.8215C373.253 92.8215 376.214 89.8597 376.214 86.2062C376.214 82.5526 373.253 79.5909 369.599 79.5909C365.946 79.5909 362.984 82.5526 362.984 86.2062C362.984 89.8597 365.946 92.8215 369.599 92.8215Z" fill="black"/>
<path d="M376.033 84.7288C374.616 80.9085 373.199 77.0881 371.782 73.2678C370.801 70.6217 369.82 67.9755 368.838 65.3349C368.629 64.7726 367.234 61.5036 367.747 60.9798C368.26 60.4561 368.943 60.6767 372.653 62.7825C375.261 64.2655 380.09 67.8212 377.951 69.4915C376.341 70.7485 372.995 71.7242 371.281 72.2259" fill="black"/>
<path d="M444.611 33.8294C448.265 33.8294 451.227 30.8677 451.227 27.2141C451.227 23.5606 448.265 20.5988 444.611 20.5988C440.958 20.5988 437.996 23.5606 437.996 27.2141C437.996 30.8677 440.958 33.8294 444.611 33.8294Z" fill="black"/>
<path d="M451.21 27.0929C450.609 23.063 450.014 19.0332 449.413 15.0034C448.999 12.2139 448.586 9.42448 448.167 6.62951C448.079 6.03413 447.39 2.55007 448.002 2.14212C448.625 1.72867 449.231 2.09251 452.428 4.92055C454.672 6.91066 458.669 11.387 456.232 12.5778C454.396 13.4764 450.923 13.741 449.143 13.8788" fill="black"/>
<path d="M298.352 131.571C302.006 131.571 304.968 128.609 304.968 124.955C304.968 121.302 302.006 118.34 298.352 118.34C294.699 118.34 291.737 121.302 291.737 124.955C291.737 128.609 294.699 131.571 298.352 131.571Z" fill="black"/>
<path d="M304.328 122.149C302.134 118.72 299.934 115.286 297.74 111.857C296.219 109.481 294.697 107.105 293.176 104.729C292.851 104.222 290.794 101.328 291.186 100.705C291.577 100.082 314.642 85.3186 314.642 85.3186C317.123 89.1775 318.716 91.2613 320.155 94.139C320.706 95.2415 320.706 94.6902 311.886 100.754C310.205 101.912 298.6 110.087 297.029 110.947" fill="black"/>
<path d="M322.994 116.785C326.648 116.785 329.61 113.824 329.61 110.17C329.61 106.517 326.648 103.555 322.994 103.555C319.341 103.555 316.379 106.517 316.379 110.17C316.379 113.824 319.341 116.785 322.994 116.785Z" fill="black"/>
<path d="M328.127 106.455C325.933 103.026 323.733 99.5912 321.539 96.1622C320.42 94.4147 319.135 92.4025 316.974 89.0342C316.649 88.5271 314.593 85.6329 314.984 85.0099" fill="black"/>
<path d="M393.111 59.2818C396.765 59.2818 399.726 56.32 399.726 52.6665C399.726 49.013 396.765 46.0512 393.111 46.0512C389.458 46.0512 386.496 49.013 386.496 52.6665C386.496 56.32 389.458 59.2818 393.111 59.2818Z" fill="black"/>
<path d="M399.473 50.9025C397.885 47.1483 396.297 43.3996 394.71 39.6454C393.613 37.0489 392.51 34.4469 391.413 31.8504C391.182 31.2991 389.638 28.0962 390.129 27.5504C390.619 27.0047 415.84 16.332 415.84 16.332C417.637 20.5547 418.856 22.8756 419.787 25.9517C420.146 27.1315 420.239 26.5857 410.52 31.0786C408.668 31.9331 395.851 38.0412 394.164 38.6256" fill="black"/>
<path d="M419.892 48.8517C423.546 48.8517 426.507 45.8899 426.507 42.2364C426.507 38.5829 423.546 35.6211 419.892 35.6211C416.238 35.6211 413.277 38.5829 413.277 42.2364C413.277 45.8899 416.238 48.8517 419.892 48.8517Z" fill="black"/>
<path d="M425.576 39.4415C423.988 35.6873 422.4 31.9386 420.813 28.1844C420.002 26.277 419.076 24.0774 417.516 20.3894C417.284 19.8381 415.741 16.6352 416.232 16.0894" fill="black"/>
<path d="M117.286 147.607C121.144 135.479 129.414 129.415 137.131 126.659C131.619 131.62 128.311 135.479 127.209 140.992M172.413 135.479C187.298 133.825 193.913 137.133 193.913 133.274C193.913 130.518 189.503 125.556 181.234 124.454M196.669 490.501C197.662 450.219 191.625 426.41 158.631 397.887M63.8119 510.898C40.5039 537.249 153.642 535.838 167.452 536.257M310.783 207.696C308.578 204.389 297.283 200.568 293.396 200.287C293.143 186.748 293.451 180.353 292.288 167.387C291.384 157.359 289.84 147.293 286.753 137.684C278.677 112.524 259.493 99.6354 234.162 95.2417C234.024 95.2197 193.307 89.1997 154.227 104.613C121.701 116.741 105.163 149.267 101.58 163.357C94.4077 191.561 90.0526 231.324 87.1033 265.382C83.1672 310.785 74.7823 351.513 58.8559 392.931C50.5868 414.43 46.7278 428.212 42.3176 443.648C38.1279 458.312 27.1079 497.072 63.8174 510.904M310.783 207.696C314.642 211.004 319.053 217.068 319.604 238.017C319.902 249.219 318.143 262.488 317.647 273.684C316.671 295.785 315.806 317.891 315.194 340.003C314.642 359.849 314.642 378.041 319.053 399.54C323.33 420.384 329.295 444.155 327.873 465.142C326.451 486.129 315.745 510.347 304.168 523.578M310.783 207.696C313.54 215.414 214.31 229.748 162.49 201.632C161.388 184.543 160.836 164.146 164.144 153.671C169.199 137.657 176.289 128.583 188.968 117.238C204.233 103.577 223.125 95.6056 243.528 97.4413M229.195 531.847C270.54 530.744 290.386 529.09 304.168 523.578M304.168 523.578C336.142 530.193 355.988 526.885 358.744 522.475C359.847 502.629 341.379 484.977 325.943 477.81M167.645 536.141C175.17 540.116 226.631 539.449 229.388 535.038C230.49 515.193 212.022 497.541 196.587 490.374M168.968 301.303C175.12 309.114 210.561 342.654 205.672 349.06C201.554 354.462 170.208 362.605 146.134 355.124M51.1328 414.425C31.2869 407.81 23.9163 397.319 9.23583 386.31C7.03072 384.656 5.17293 384.309 4.27435 385.207C-0.565856 390.047 -0.47213 460.054 37.5659 474.938M93.3434 208.363C70.9782 222.581 55.9835 243.248 49.4784 259.516C45.0682 270.542 43.4144 274.952 45.6195 281.016C47.8246 287.08 56.645 288.734 63.2603 290.388C68.2328 291.628 79.0874 291.975 84.2088 292.042M12.4053 534.41L16.8155 539.371M16.3525 528.952L27.9789 542.321M24.0483 524.145L43.3429 544.542M35.2998 521.014L57.3509 544.167M48.9384 519.288L72.6432 543.544M71.5297 527.436L90.8243 547.282M91.5079 532.061L109.568 551.141M109.127 534.443L125.852 550.904M125.77 535.297L142.347 551.295M142.644 536.257L158.08 551.692M157.38 536.488L174.618 552.244M173.946 537.31L192.81 553.897M192.562 539.129L209.349 553.346M209.178 538.721L229.195 555M226.157 536.593L248.489 552.795M241.852 531.372L259.515 543.974M264.377 530.446L281.014 541.769M285.491 528.12L302.514 539.013M305.772 523.688L318.501 531.295M334.973 527.249L348.821 534.603M353.992 525.441L360.398 528.539M345.459 77.0716C343.474 73.5158 341.49 69.9546 339.505 66.3989C338.132 63.9347 336.754 61.4704 335.381 59.0062C335.089 58.4825 333.209 55.4671 333.639 54.8662C334.069 54.2653 334.775 54.381 338.761 55.8971C341.567 56.961 346.881 59.7394 345.029 61.713C343.629 63.2015 340.475 64.6789 338.854 65.4396M376.033 84.7288C374.616 80.9085 373.199 77.0881 371.782 73.2678C370.801 70.6217 369.82 67.9755 368.838 65.3349C368.629 64.7726 367.234 61.5036 367.747 60.9798C368.26 60.4561 368.943 60.6767 372.653 62.7825C375.261 64.2655 380.09 67.8212 377.951 69.4915C376.341 70.7485 372.995 71.7242 371.281 72.2259M451.21 27.0929C450.609 23.063 450.014 19.0332 449.413 15.0034C448.999 12.2139 448.586 9.42448 448.167 6.62951C448.079 6.03413 447.39 2.55007 448.002 2.14212C448.625 1.72867 449.231 2.09251 452.428 4.92055C454.672 6.91066 458.669 11.387 456.232 12.5778C454.396 13.4764 450.923 13.741 449.143 13.8788M304.328 122.149C302.134 118.72 299.934 115.286 297.74 111.857C296.219 109.481 294.697 107.105 293.176 104.729C292.851 104.222 290.794 101.328 291.186 100.705C291.577 100.082 314.642 85.3186 314.642 85.3186C317.123 89.1775 318.716 91.2613 320.155 94.139C320.706 95.2415 320.706 94.6902 311.886 100.754C310.205 101.912 298.6 110.087 297.029 110.947M328.127 106.455C325.933 103.026 323.733 99.5912 321.539 96.1622C320.42 94.4147 319.135 92.4025 316.974 89.0342C316.649 88.5271 314.593 85.6329 314.984 85.0099M399.473 50.9025C397.885 47.1483 396.297 43.3996 394.71 39.6454C393.613 37.0489 392.51 34.4469 391.413 31.8504C391.182 31.2991 389.638 28.0962 390.129 27.5504C390.619 27.0047 415.84 16.332 415.84 16.332C417.637 20.5547 418.856 22.8756 419.787 25.9517C420.146 27.1315 420.239 26.5857 410.52 31.0786C408.668 31.9331 395.851 38.0412 394.164 38.6256M425.576 39.4415C423.988 35.6873 422.4 31.9386 420.813 28.1844C420.002 26.277 419.076 24.0774 417.516 20.3894C417.284 19.8381 415.741 16.6352 416.232 16.0894M241.51 175.508C241.483 175.381 241.433 175.265 241.4 175.144C241.461 174.637 241.488 174.146 241.477 173.694C241.461 172.663 241.279 171.676 240.953 170.761C240.816 168.589 240.193 166.505 239.112 164.978C235.413 159.763 227.723 161.632 227.116 167.994C227.067 168.517 227.116 168.98 227.227 169.394C225.611 171.759 225.165 174.852 226.664 177.558C227.166 178.462 227.844 179.212 228.627 179.813C228.434 180 228.257 180.204 228.114 180.436C227.943 180.712 227.684 181.197 227.37 181.704C227.249 181.787 227.116 181.869 226.984 181.946C225.738 181.335 224.217 181.279 223.103 181.908C222.965 181.803 222.833 181.704 222.712 181.638C220.341 180.353 217.022 180.519 215.76 177.834C217.701 175.954 218.384 172.861 217.684 170.221C216.863 167.117 213.814 164.669 210.777 165.414C210.253 165.193 209.707 165.05 209.156 164.973C208.252 164.697 207.248 164.747 206.361 165.193C205.446 165.469 204.564 165.943 203.764 166.632C202.992 167.299 202.64 168.324 202.662 169.366C202 169.802 201.488 170.496 201.295 171.511C200.644 174.901 200.33 178.286 200.484 181.737C200.611 184.593 202.899 185.811 204.994 185.37C206.57 188.584 209.106 191.533 212.281 193.22C213.715 193.981 215.314 194.438 216.945 194.598C217.971 195.53 219.079 196.368 220.336 196.974C222.894 198.209 225.832 198.303 228.274 196.721C230.738 195.122 232.155 192.095 233.665 189.681C234.955 187.619 236.306 185.585 237.591 183.512C240.468 182.514 242.265 178.766 241.51 175.519V175.508ZM358.568 518.098C358.607 517.718 358.623 517.332 358.607 516.935C358.491 514.399 357.504 512.05 355.922 510.275C356.148 509.454 356.258 508.599 356.22 507.717C356.054 504.002 354.031 500.683 350.96 498.985C350.96 498.941 350.96 498.897 350.96 498.853C348.998 495.986 347.228 492.993 345.701 489.867C342.454 486.934 338.827 484.349 334.946 482.403C332.741 481.3 330.431 480.12 328.011 479.619C327.449 478.544 326.385 477.744 324.808 477.728C327.487 468.814 328.705 459.415 327.09 450.241C327.945 447.816 328.116 445.136 327.46 442.43L323.49 426.035C323.457 425.313 323.391 424.579 323.264 423.835C322.3 417.937 321.004 412.115 319.383 406.371C318.942 402.44 318.38 398.526 317.719 394.629C317.586 393.84 317.355 393.096 317.046 392.39C315.987 381.701 315.067 371.001 314.262 360.29C314.306 359.854 314.35 359.424 314.389 358.989C316.302 338.332 315.15 317.522 316.191 296.816C316.71 286.496 317.459 276.187 318.237 265.884C319.372 262.863 320.111 259.665 320.343 256.302C320.618 252.262 319.764 248.397 319.339 244.411C319.301 243.926 319.251 243.309 319.229 243.061C319.135 242.124 319.064 241.186 319.042 240.249C319.042 240.034 318.992 239.511 318.97 238.97C319.086 238.425 319.229 237.89 319.405 237.361C320.271 234.455 319.924 231.269 318.678 228.474C320.431 223.248 319.565 217.118 315.232 213.523C315.116 210.519 311.065 208.479 308.76 210.723C304.3 210.028 299.389 211.258 296.5 214.747L293.699 215.376C293.236 215.48 292.823 215.684 292.454 215.955C285.309 216.638 278.153 217.162 270.987 217.498C263.335 217.851 254.845 216.919 247.453 219.169C247.425 219.18 247.403 219.191 247.376 219.196C244.873 219.246 242.365 219.29 239.862 219.339C236.312 218.623 232.816 218.557 229.228 219.025C228.12 218.909 227.012 218.788 225.904 218.656C217.921 217.465 209.999 215.944 202.105 214.262C194.42 212.619 186.542 211.181 178.957 209.003C175.974 207.459 172.639 206.489 169.039 206.258C168.571 205.684 168.091 205.111 167.584 204.538C165.853 202.57 163.813 200.877 161.669 199.306C161.476 189.521 161.553 179.736 161.9 169.951C161.944 168.683 161.47 167.74 160.743 167.117C162.049 160.386 163.813 153.76 166.051 147.26C166.526 145.876 166.818 144.377 166.945 142.822C167.049 142.69 167.154 142.558 167.248 142.403C170.456 137.414 173.466 132.177 177.242 127.591C177.424 127.37 177.573 127.144 177.7 126.913C179.095 125.496 180.495 124.101 181.868 122.712C185.434 119.101 189.834 116.284 193.428 112.723C193.963 112.425 194.503 112.127 195.06 111.846C195.909 111.422 196.796 111.074 197.689 110.76C197.678 110.848 197.678 110.937 197.673 111.025C201.421 108.428 205.661 104.658 210.38 104.316C211.179 103.792 211.978 103.279 212.8 102.805C213.208 102.684 213.616 102.557 214.023 102.425C214.768 102.182 215.418 101.769 215.958 101.256C216.262 101.135 216.565 101.025 216.874 100.92C218.213 100.854 219.547 100.639 220.876 100.225C221.025 100.176 221.163 100.121 221.3 100.06C221.532 100.054 221.769 100.043 222 100.027C224.52 99.8614 226.995 99.3983 229.421 98.6982C230.782 98.3068 231.278 97.1381 231.141 96.0466C231.587 96.0466 232.039 96.0411 232.486 96.0356C232.844 96.0356 232.839 95.5063 232.486 95.4843C231.984 95.4512 231.482 95.4292 230.981 95.4016C230.578 94.3211 229.531 93.4997 228.098 93.9132C226.201 94.4589 224.299 94.6684 222.397 94.7897C221.758 93.9848 220.76 93.5052 219.509 93.7533C219.068 93.5493 218.527 93.4666 217.888 93.5438C216.973 93.6596 216.058 93.7698 215.143 93.8856C214.068 93.2296 212.761 92.976 211.526 93.3839C209.233 94.1392 206.912 94.7456 204.558 95.2087C190.192 97.0003 175.82 98.7975 161.454 100.589C161.25 101.388 160.643 102.056 159.541 102.254C157.837 102.563 156.184 102.987 154.557 103.5C154.309 103.682 154.034 103.842 153.736 103.963C152.54 104.454 151.63 104.9 150.34 105.076C149.789 105.314 149.238 105.567 148.692 105.826C148.411 106.085 148.141 106.355 147.887 106.637C148.025 107.1 148.256 107.519 148.593 107.844C144.022 109.272 139.723 111.361 136.52 114.867C135.858 114.972 135.197 115.088 134.546 115.242C134.16 115.567 133.78 115.893 133.399 116.223C127.76 121.124 122.164 126.091 116.883 131.372C116.602 132.056 116.332 132.756 116.084 133.478C115.626 134.801 115.196 136.135 114.772 137.48C113.598 137.629 112.479 138.236 112.015 139.322C110.488 142.922 109.072 146.56 107.782 150.231C107.115 150.518 106.508 151.053 106.045 151.874C102.412 158.324 99.5842 165.077 97.5444 172.034C97.0648 173.435 96.6018 174.835 96.1663 176.252C96.0009 176.792 95.9678 177.31 96.045 177.795C93.9115 187.128 93.1342 196.776 93.669 206.517C93.7462 207.895 93.7792 209.251 93.7847 210.602C93.3437 210.784 92.9303 211.048 92.5664 211.407C89.8817 214.042 88.3602 217.785 88.6413 221.556C88.6965 222.3 88.928 223.005 89.3029 223.606C86.3866 232.961 86.1551 242.862 85.8298 252.592C85.4495 263.954 85.0691 275.316 84.6887 286.678C84.6722 287.152 84.7328 287.582 84.843 287.968C83.8563 288.673 83.2719 289.875 83.1176 291.171C82.3954 297.279 81.2763 303.31 79.9312 309.291C78.79 309.589 77.7757 310.399 77.3292 311.849C73.6687 323.619 71.4636 335.758 69.0931 347.831C68.6025 350.323 68.1174 352.814 67.6267 355.306C64.2639 368.625 61.4359 382.076 59.1481 395.626C58.0676 396.078 57.1635 396.949 56.9816 398.107C56.6122 400.472 56.1547 402.81 55.6365 405.136C54.5064 407.479 53.4479 409.849 52.4391 412.253C52.1689 412.903 52.18 413.598 52.3895 414.254C52.1083 414.871 51.8382 415.494 51.557 416.112C51.32 415.968 51.0664 415.842 50.7852 415.737C44.9472 413.543 39.3297 410.831 33.9658 407.639C32.9625 407.043 32.0805 406.569 31.4244 405.676C30.7243 404.728 30.3991 403.653 29.4729 402.832C27.786 401.327 25.6415 400.99 23.7176 401.674C22.819 401.255 21.937 400.814 21.1101 400.285C20.4099 398.543 19.2688 397.032 17.8079 395.919C17.7252 395.759 17.648 395.604 17.5654 395.45C16.5345 393.504 15.3272 391.635 13.6017 390.235C12.8409 389.617 11.9589 389.221 11.0658 389.105C10.5972 387.429 9.48916 386.167 7.59278 385.472C5.49793 384.7 3.0613 386.332 2.50451 388.361C2.16272 389.595 2.4163 390.748 3.05027 391.668C3.05027 391.927 3.06129 392.192 3.08334 392.451C3.12745 393.063 3.21014 393.697 3.33142 394.32C2.69746 397.032 2.28951 399.783 2.10759 402.55C2.069 402.898 2.04695 403.245 2.05246 403.598C1.98631 405.059 1.98079 406.525 2.04694 407.997C2.09656 409.138 2.52656 410.031 3.16053 410.682C3.12745 410.836 3.1109 410.996 3.09436 411.156C1.66105 412.848 1.91465 415.836 3.84962 417.077C4.08116 418.692 4.5718 420.23 5.10653 421.757C4.92461 422.711 4.88602 423.703 5.01833 424.734C5.36012 427.33 5.66332 429.938 5.9996 432.54C6.36895 434.067 6.62805 435.616 6.66664 437.22C6.68317 437.308 6.68869 437.391 6.70523 437.479C7.05253 439.613 7.78572 441.674 8.84968 443.571C9.37891 444.508 10.0846 445.374 10.7736 446.217C11.6667 448.411 13.0284 450.379 14.7704 451.873C18.5852 462.937 26.7662 471.173 37.9791 474.718C38.0894 474.751 38.1996 474.779 38.3044 474.812C38.2768 475.534 38.2603 476.251 38.2492 476.973C38.2217 478.902 38.1335 481.069 38.1996 483.257C39.3187 483.511 40.2945 484.371 40.3386 485.837C40.4488 489.492 42.235 492.645 44.0597 495.716C44.2306 496.003 44.3408 496.284 44.407 496.559C44.6109 496.626 44.8094 496.67 45.0079 496.697C47.6099 501.201 51.7665 504.382 56.4358 506.549C57.6211 507.1 58.8284 507.607 60.0467 508.076C60.5594 508.274 62.0809 508.787 62.5219 508.914C62.5109 509.107 62.781 509.834 62.8086 509.95C63.007 510.749 63.1724 511.56 63.2771 512.376C63.3047 512.58 63.3213 513.026 63.3488 513.517C63.0125 513.836 62.7259 514.206 62.5274 514.592C62.3731 514.895 62.2683 515.198 62.1856 515.501C61.9045 515.92 61.6729 516.4 61.5517 516.857C61.2043 518.164 61.491 519.608 62.2352 520.716C62.6708 521.367 63.2992 521.907 64.0103 522.249C64.512 523.109 65.3169 523.765 66.3036 524.035C67.6708 525.215 69.3357 525.965 71.1659 526.268C71.3588 526.395 71.6069 526.554 71.9212 526.764C73.156 527.596 74.2475 528.087 75.7194 528.633C77.7922 529.405 79.9312 529.691 82.1528 529.851C83.0018 529.912 83.8618 529.934 84.7273 529.939C84.8375 529.967 84.9423 530.005 85.0525 530.027C87.3293 530.496 89.6116 530.898 91.9159 531.229C91.9711 531.235 92.0317 531.24 92.0868 531.251C92.8972 531.758 93.7958 532.128 94.7826 532.293C98.3493 532.883 101.944 533.341 105.554 533.528C106.624 533.583 107.682 533.401 108.691 533.054C110.483 533.429 112.302 533.627 114.121 533.627C115.334 534.118 116.668 534.41 118.09 534.581C122.694 535.127 127.253 535.171 131.806 534.851C133.091 535.502 134.601 535.849 136.332 535.783C141.145 535.59 145.957 535.402 150.765 535.209C152.413 535.695 154.094 535.81 155.737 535.579C175.109 537.459 194.608 539.113 214.018 537.249C217.535 539.339 222.453 539.173 225.766 536.61C228.461 535.827 230.826 533.726 232.067 531.169C232.249 531.158 232.431 531.141 232.618 531.13C233.18 531.097 233.737 531.08 234.299 531.064C235.292 531.136 236.29 531.136 237.26 531.042C237.949 530.976 238.632 530.849 239.3 530.672C241.389 530.513 243.478 530.353 245.568 530.198C247.017 530.165 248.467 530.116 249.912 530.061C250.005 530.088 250.105 530.11 250.204 530.127C256.317 531.058 262.42 531.461 268.6 531.174C270.204 531.097 271.285 530.237 271.852 529.112C272.778 529.14 273.727 529.046 274.669 528.804L278.672 527.778C279.069 528.115 279.537 528.352 280.072 528.429C285.485 529.261 290.822 528.87 295.91 526.736C296.781 526.372 297.531 525.816 298.038 525.121C298.948 524.901 299.846 524.537 300.69 523.997C301.445 523.511 302.195 523.032 302.95 522.547C303.512 522.679 304.096 522.751 304.697 522.762C306.357 524.173 308.457 525.022 310.811 524.879C312.366 524.785 314.008 524.614 315.574 524.752C315.37 524.757 316.434 524.983 316.82 525.099C317.581 525.32 318.325 525.59 319.075 525.843C323.22 527.238 327.2 527.712 331.506 526.736C331.506 526.736 331.511 526.736 331.517 526.736C331.997 526.808 332.487 526.858 332.994 526.858C333.876 526.858 334.747 526.72 335.591 526.472C336.203 527.337 337.206 527.933 338.601 527.916C341.644 527.877 344.621 527.492 347.509 526.786C347.895 526.836 348.292 526.863 348.7 526.863C351.401 526.863 354.037 525.623 355.916 523.682C356.335 523.473 356.749 523.258 357.162 523.032C359.257 521.885 359.445 519.746 358.59 518.103L358.568 518.098ZM319.124 237.482C319.069 237.934 319.014 238.392 318.959 238.844C318.937 238.21 318.959 237.592 319.124 237.482ZM9.58841 441.476C9.73174 443.025 10.1011 444.569 10.6689 446.019C9.91366 444.695 9.54982 443.185 9.58841 441.476ZM182.843 125.066C183.113 125.071 183.384 125.099 183.648 125.137C183.34 125 183.009 124.9 182.639 124.95C182.342 124.989 182.072 125.077 181.818 125.193C182.11 125.104 182.441 125.06 182.843 125.071V125.066ZM309.923 206.456C309.13 204.565 307.305 203.915 305.37 204.223C304.852 204.306 304.328 204.35 303.804 204.361C302.536 203.661 299.846 201.759 299.251 201.572C298.016 201.175 296.709 201.081 295.535 201.39C294.593 200.624 293.545 200.387 292.564 200.519C293.021 196.213 293.016 191.858 292.906 187.536C292.658 178.027 291.847 168.457 290.783 159.008C288.65 140.127 283.302 121.234 267.365 109.388C263.473 106.493 259.041 104.222 254.708 102.072C249.548 99.5086 244.377 97.5957 238.616 97.0389C235.876 96.7743 233.12 97.0389 230.424 97.5792C229.002 97.8603 227.712 98.362 226.378 98.9243C224.018 99.9166 225.325 99.2606 225.683 99.1393C224.873 99.4094 224.068 99.674 223.263 99.9552C220.65 100.881 218.07 101.912 215.534 103.048C213.086 102.938 210.628 103.908 208.483 105.611C209.613 104.718 207.359 106.322 207.348 106.328C206.862 106.631 206.372 106.901 205.876 107.171L201.107 108.958C199.244 109.658 197.551 110.865 196.322 112.397C194.762 113.213 193.307 114.255 191.95 115.562C191.912 115.595 191.884 115.639 191.851 115.678C190.754 115.915 190.109 116.758 189.905 117.712C188.29 118.577 186.669 119.437 185.054 120.303C183.136 120.716 182.05 123.638 184.238 124.884C184.767 125.187 185.308 125.479 185.848 125.771C185.82 125.766 185.793 125.76 185.765 125.755C188.466 126.885 190.903 129.217 192.893 130.964C194.029 131.962 193.885 133.633 193.014 134.686C192.855 135.286 192.617 136.224 192.777 136.02C193.158 136.119 193.053 136.141 192.452 136.075C192.094 136.064 191.741 136.053 191.383 136.047C190.671 136.025 189.96 136.009 189.249 135.987C187.65 135.942 186.046 135.898 184.448 135.854L179.773 135.727C181.217 135.54 182.667 135.375 184.122 135.275C182.579 135.06 180.682 134.647 179.04 134.647C178.692 134.873 178.306 134.978 177.915 134.989C177.59 135.132 177.22 135.22 176.79 135.22C174.977 135.22 174.095 133.787 174.133 132.381C174.122 132.299 174.106 132.216 174.1 132.133C173.626 133.23 173.885 134.763 174.762 135.59C173.295 135.59 172.529 136.67 172.463 137.828C172.358 137.877 172.253 137.927 172.149 137.988C170.809 138.782 170.197 140.204 169.69 141.599C169.106 143.208 168.565 144.84 168.025 146.466C166.917 147.58 165.875 148.754 164.965 150.05C162.198 153.997 161.823 158.346 163.036 162.663C162.7 164.476 162.567 166.34 162.634 168.308C162.733 171.434 162.804 174.543 162.667 177.669C162.589 179.405 162.468 181.142 162.297 182.873C162.237 183.49 162.171 184.102 162.093 184.719C162.093 184.664 161.796 186.726 161.807 186.665C161.498 188.622 161.663 190.69 162.33 192.52C160.693 196.577 161.752 201.991 165.991 204.097C174.569 208.358 183.88 210.001 193.185 211.875C195.137 212.267 197.088 212.647 199.045 213.016C202.722 215.42 206.94 217.002 211.697 217.52C213.555 217.724 215.38 217.068 216.907 215.927C219.09 216.214 221.278 216.473 223.472 216.693C231.074 217.454 238.649 217.542 246.24 217.134C246.692 217.333 247.21 217.46 247.806 217.482C265.899 218.11 284.002 216.39 301.665 212.449C302.095 212.355 302.47 212.206 302.795 212.019C304.394 212.393 305.883 212.256 307.415 211.682C307.415 211.682 307.415 211.682 307.421 211.682C307.724 211.566 308.033 211.44 308.341 211.296C310.072 210.469 310.607 208.11 309.918 206.478L309.923 206.456ZM242.431 179.306C240.59 184.394 236.99 188.826 233.059 192.465C232.331 193.137 229.217 195.905 226.24 197.796C226.041 197.718 225.832 197.663 225.622 197.647C223.147 197.437 220.755 197.548 218.307 197.862C217.353 197.509 216.416 197.04 215.517 196.517C215.435 196.092 215.258 195.684 214.95 195.353C210.804 190.833 206.587 186.368 202.518 181.781C202.221 181.445 201.923 181.097 201.62 180.739C201.609 180.656 201.598 180.574 201.587 180.491C201.647 179.543 201.647 178.589 201.576 177.624C201.504 176.665 201.058 176.004 200.462 175.618C200.716 173.914 201.102 172.227 201.62 170.552C201.747 170.144 201.774 169.769 201.719 169.427C203.125 166.56 205.109 164.383 207.899 162.795C208.037 162.718 208.152 162.63 208.268 162.542C208.549 163.043 209.029 163.429 209.713 163.567C211.372 163.903 212.932 163.975 214.465 163.776C214.487 163.964 214.514 164.151 214.553 164.344C214.74 165.199 215.484 165.822 216.284 166.075C216.967 166.29 217.634 166.428 218.312 166.483C217.899 167.31 217.59 168.137 217.519 168.407C216.929 170.717 216.185 173.253 216.24 175.651C216.3 178.413 217.91 181.048 220.269 182.046C220.959 182.834 222.122 183.258 223.362 182.702C223.919 182.454 224.426 182.145 224.884 181.792C225.992 181.968 227.144 181.505 227.91 180.497C230.92 176.538 227.927 170.507 226.537 166.467C226.576 166.334 226.604 166.196 226.642 166.059C226.967 164.879 227.298 163.699 227.734 162.575C232.249 159.724 237.976 160.584 241.135 165.017C244.129 169.223 244.118 174.603 242.414 179.306H242.431ZM176.234 129.437C177.149 128.605 178.295 128.131 179.31 127.249C179.74 126.874 180.07 126.488 180.401 126.141C180.258 126.256 180.115 126.372 179.971 126.482C178.753 127.431 177.391 128.357 176.217 129.437C176.223 129.437 176.228 129.437 176.239 129.437H176.234ZM193.213 130.981C191.124 128.169 188.555 126.245 185.186 125.22C184.249 124.933 183.461 125.137 182.876 125.595C182.358 125.54 181.801 125.628 181.239 125.931L180.644 126.251C179.883 126.659 179.475 127.254 179.332 127.888C178.742 128.555 178.119 129.211 177.457 129.729C176.724 129.763 176.041 129.95 175.291 130.43C173.191 131.78 173.775 135.871 176.68 135.567C181.388 135.071 186.096 134.922 190.826 135.121C192.772 135.204 194.453 132.657 193.207 130.975L193.213 130.981ZM205.17 184.642C202.733 181.803 201.223 178.109 201.058 174.372C200.892 170.634 202.568 166.665 205.837 164.846C209.106 163.027 215.374 164.333 217.017 167.696C218.792 171.334 215.087 175.563 216.405 179.388C217.568 182.779 221.747 184.78 225.115 183.562C228.483 182.343 230.418 178.137 229.145 174.785C228.417 172.872 226.967 169.658 226.378 167.701C225.231 163.909 229.917 161.516 233.864 161.152C237.811 160.788 240.176 163.501 241.714 167.156C243.252 170.811 242.839 175.05 241.438 178.76C240.038 182.47 237.723 185.745 235.446 188.992C225.44 203.27 217.954 199.527 205.17 184.648V184.642ZM26.8767 408.361C29.6275 406.476 31.2869 405.605 32.9407 404.502C38.6078 400.726 39.0047 397.887 41.7666 401.426C44.7986 405.312 45.62 413.3 45.62 419.938C45.62 421.592 43.9828 423.747 36.7996 421.591C31.2869 419.938 21.3584 413.091 26.8767 408.361ZM12.3836 393.851C14.3076 392.534 15.4708 391.922 16.6284 391.15C20.5921 388.504 20.8733 386.519 22.8082 388.995C24.9306 391.718 25.504 397.308 25.504 401.955C25.504 403.113 24.3573 404.623 19.3297 403.113C15.4708 401.955 8.51916 397.165 12.3836 393.851ZM127.76 121.146C102.936 133.164 81.6454 159.598 72.632 174.62C66.0167 185.645 67.5052 192.862 68.2218 195.017C69.3244 198.325 70.9782 201.081 77.5935 202.735C82.566 203.975 88.4592 204.874 93.5805 204.94C96.3369 189.504 97.4395 147.607 127.76 121.146ZM60.504 387.964C46.7221 389.066 34.605 385.896 29.6325 384.656C23.0172 383.002 17.5045 379.694 15.2994 375.836C12.9454 371.718 17.8352 362.164 25.7736 349.374C35.6966 333.387 58.6572 308.365 83.4812 296.353C78.5803 327.814 70.4269 362.054 60.504 387.964ZM345.944 79.5137C345.944 83.1673 342.982 86.1291 339.329 86.1291C335.675 86.1291 332.713 83.1673 332.713 79.5137C332.713 75.8602 335.675 72.8984 339.329 72.8984C342.982 72.8984 345.944 75.8602 345.944 79.5137ZM376.214 86.2062C376.214 89.8597 373.253 92.8215 369.599 92.8215C365.946 92.8215 362.984 89.8597 362.984 86.2062C362.984 82.5526 365.946 79.5909 369.599 79.5909C373.253 79.5909 376.214 82.5526 376.214 86.2062ZM451.227 27.2141C451.227 30.8677 448.265 33.8294 444.611 33.8294C440.958 33.8294 437.996 30.8677 437.996 27.2141C437.996 23.5606 440.958 20.5988 444.611 20.5988C448.265 20.5988 451.227 23.5606 451.227 27.2141ZM304.968 124.955C304.968 128.609 302.006 131.571 298.352 131.571C294.699 131.571 291.737 128.609 291.737 124.955C291.737 121.302 294.699 118.34 298.352 118.34C302.006 118.34 304.968 121.302 304.968 124.955ZM329.61 110.17C329.61 113.824 326.648 116.785 322.994 116.785C319.341 116.785 316.379 113.824 316.379 110.17C316.379 106.517 319.341 103.555 322.994 103.555C326.648 103.555 329.61 106.517 329.61 110.17ZM399.726 52.6665C399.726 56.32 396.765 59.2818 393.111 59.2818C389.458 59.2818 386.496 56.32 386.496 52.6665C386.496 49.013 389.458 46.0512 393.111 46.0512C396.765 46.0512 399.726 49.013 399.726 52.6665ZM426.507 42.2364C426.507 45.8899 423.546 48.8517 419.892 48.8517C416.238 48.8517 413.277 45.8899 413.277 42.2364C413.277 38.5829 416.238 35.6211 419.892 35.6211C423.546 35.6211 426.507 38.5829 426.507 42.2364Z" stroke="black" stroke-width="4" stroke-miterlimit="10"/>
</svg>
